<svg xmlns="http://www.w3.org/2000/svg" xmlns:xlink="http://www.w3.org/1999/xlink" width="500" zoomAndPan="magnify" viewBox="0 0 375 374.999991" height="500" preserveAspectRatio="xMidYMid meet" version="1.2"><defs><clipPath id="28a832e10a"><path d="M 92.195312 125 L 282.695312 125 L 282.695312 250.597656 L 92.195312 250.597656 Z M 92.195312 125 "/></clipPath></defs><g id="9d554409fa"><g clip-rule="nonzero" clip-path="url(#28a832e10a)"><path style=" stroke:none;fill-rule:nonzero;fill:#000000;fill-opacity:1;" d="M 173.121094 125.894531 C 177.910156 124.640625 184.109375 126.402344 186.808594 126.886719 C 190.648438 128.015625 199.980469 127.375 201.367188 127.597656 C 200.8125 127.59375 193.667969 127.503906 193.046875 127.746094 C 194.148438 128.140625 194.757812 127.980469 195.839844 128.007812 C 205.875 127.917969 198.605469 127.640625 220.039062 132.144531 C 220.957031 132.34375 221.90625 132.414062 222.800781 132.710938 C 222.800781 132.710938 229.398438 137.398438 229.398438 137.398438 C 232.214844 138.332031 240.113281 140.519531 240.25 140.535156 C 240.488281 140.941406 240.214844 140.621094 243.207031 143.621094 C 243.617188 144.042969 243.769531 144.753906 244.386719 144.9375 C 250.441406 147.515625 246.332031 145.070312 253.753906 150.085938 C 253.820312 150.128906 256.832031 152.121094 256.914062 152.136719 C 256.933594 152.210938 260.984375 157.214844 262.011719 158.421875 C 262.035156 158.496094 264.21875 163.914062 264.640625 164.460938 C 268.71875 167.382812 268.246094 165.429688 272.65625 171.488281 C 274.109375 177.707031 273.304688 176.449219 275.65625 180.28125 C 275.949219 180.679688 276.046875 181.175781 276.171875 181.640625 C 278.269531 188.199219 277.710938 186.371094 277.804688 187.832031 C 282.335938 194.472656 282.214844 208.472656 282.574219 209.402344 C 282.699219 210.730469 281.242188 220.464844 281.222656 220.539062 C 279.339844 226.96875 279.070312 226.378906 280.160156 231.261719 C 280.277344 231.613281 279.589844 234.480469 279.433594 235.457031 C 278.0625 238.78125 275.851562 241.203125 271.046875 247.753906 C 271.046875 247.753906 266.601562 249.78125 266.601562 249.78125 C 266.601562 249.78125 260.785156 250.550781 260.785156 250.550781 C 260.425781 250.328125 258.492188 249.53125 257.722656 249.019531 C 256.140625 248.707031 254.554688 248.445312 252.96875 248.160156 C 249.816406 247.875 246.539062 245.148438 244.804688 244.949219 C 241.917969 244.511719 239.023438 244.21875 236.132812 243.832031 C 235.90625 243.726562 231.386719 241.382812 231.375 241.375 C 230.398438 239.894531 229.402344 238.429688 228.4375 236.941406 C 227.382812 237.363281 225.105469 236.726562 224.355469 236.730469 C 223.800781 236.332031 223.261719 235.914062 222.699219 235.523438 C 214.25 239.289062 209.675781 238.285156 207.558594 238.671875 C 202.597656 241.140625 205.320312 240.679688 197.203125 240.617188 C 196.835938 240.496094 196.449219 240.53125 196.070312 240.5 C 195.714844 240.367188 194.148438 240.3125 193.769531 240.3125 C 193.335938 240.539062 191.046875 242.210938 190.996094 242.261719 C 190.828125 242.324219 187.945312 242.929688 187.789062 242.957031 C 186.992188 242.84375 183.3125 243.042969 180.046875 241.492188 C 179.839844 241.375 179.652344 241.597656 179.46875 241.671875 C 178.734375 242.1875 177.824219 242.414062 177.125 242.988281 C 177.113281 242.992188 173.585938 244.234375 173.507812 244.273438 C 172.160156 244.296875 170.816406 244.265625 169.46875 244.285156 C 168.066406 245.046875 161.421875 246.675781 155.503906 245.410156 C 146.292969 243.015625 149.792969 243.460938 144.679688 241.417969 C 144.425781 241.230469 141.148438 238.238281 141.066406 238.140625 C 139.347656 236.179688 141.347656 239.539062 137.289062 232.785156 C 136.695312 232.785156 136.097656 232.785156 135.503906 232.785156 C 135.503906 232.785156 133.515625 230.65625 133.515625 230.65625 C 133.226562 229.804688 133.054688 228.914062 132.761719 228.0625 C 132.734375 226.675781 132.761719 225.289062 132.75 223.902344 C 132.414062 223.894531 129.800781 223.722656 129.527344 223.578125 C 111.492188 215.199219 110.082031 218.785156 101.261719 214.496094 C 100.191406 213.898438 99.632812 214.042969 98.996094 213.242188 C 96.566406 209.703125 97.203125 213.054688 95.84375 207.175781 C 95.804688 203.0625 95.898438 203.039062 95.773438 202.863281 C 94.199219 200.367188 94.277344 199.898438 93.476562 198.773438 C 93.285156 198.066406 92.195312 193.375 92.894531 191.480469 C 92.933594 189.878906 93.082031 190.027344 96.949219 182.480469 C 97.113281 181.980469 96.796875 181.511719 96.691406 181.035156 C 95.917969 176.871094 96.167969 177.136719 97.023438 173.585938 C 97.023438 173.585938 99.679688 169.335938 99.679688 169.335938 C 100.027344 169.121094 103.308594 166.003906 103.382812 165.945312 C 103.785156 165.785156 104.195312 165.644531 104.597656 165.488281 C 104.625 163 104.371094 163.773438 105.359375 159.675781 C 107.15625 157.753906 106.007812 157.75 114.9375 151.710938 C 115.300781 151.125 116.371094 150.449219 116.933594 149.84375 C 117.007812 149.796875 121.375 145.902344 122.394531 145.5625 C 123.679688 145.367188 128.359375 143.875 129.109375 143.757812 C 129.53125 143.726562 129.96875 143.808594 130.378906 143.667969 C 131.03125 143.667969 131.65625 143.429688 132.308594 143.429688 C 133.027344 142.5 133.921875 141.734375 135.097656 140.242188 C 141.167969 136.863281 136.789062 137.953125 143.535156 136.792969 C 144.140625 136.648438 144.785156 136.554688 145.390625 136.730469 C 145.394531 136.730469 147.324219 136.875 147.324219 136.875 C 147.972656 137.078125 148.648438 136.886719 149.304688 136.855469 C 149.695312 136.121094 151.429688 134.898438 152.183594 134.171875 C 158.980469 130.8125 157.65625 131.363281 166 131.429688 C 166.289062 131.554688 166.582031 131.679688 166.890625 131.765625 C 167.136719 131.199219 170.328125 126.664062 170.675781 126.578125 C 171.484375 126.34375 172.324219 126.199219 173.121094 125.894531 M 175.597656 126.914062 C 175.042969 127.039062 174.488281 127.164062 173.941406 127.324219 C 173.605469 127.304688 173.273438 127.398438 172.976562 127.550781 C 172.214844 127.699219 169.257812 132.003906 169.191406 132.394531 C 169.113281 132.277344 168.820312 132.25 168.792969 132.414062 C 168.859375 132.519531 169.054688 132.617188 169.164062 132.523438 C 169.6875 132.753906 170.242188 132.90625 170.765625 133.140625 C 171.105469 133.269531 171.492188 133.492188 171.851562 133.300781 C 171.851562 133.300781 176.605469 131.5625 177.617188 131.132812 C 177.691406 131.097656 182.757812 130.132812 188.765625 131.382812 C 189.925781 131.460938 193.515625 131.320312 195.03125 131.472656 C 194.816406 131.558594 194.597656 131.628906 194.382812 131.707031 C 194.007812 131.703125 193.644531 131.785156 193.289062 131.878906 C 186.546875 133.753906 186.46875 132.953125 183.472656 132.886719 C 182.84375 132.558594 182.117188 132.835938 181.453125 132.855469 C 177.546875 132.808594 176.898438 133.015625 171.957031 135.582031 C 171.953125 135.582031 165.75 133.3125 165.636719 133.285156 C 165.148438 133.054688 158.871094 133.109375 158.578125 133.296875 C 157.734375 133.511719 156.992188 133.980469 156.210938 134.347656 C 154.574219 135.101562 154.914062 134.351562 153.371094 135.992188 C 153.371094 135.992188 150.972656 138.296875 150.972656 138.296875 C 150.972656 138.296875 144.171875 138.644531 142.601562 138.792969 C 137.847656 141.742188 139.21875 140.671875 136.375 143.203125 C 135.777344 143.894531 134.878906 144.304688 134.457031 145.144531 C 132.425781 149.121094 133.066406 148.007812 131.917969 148.433594 C 131.621094 148.414062 131.308594 148.382812 131.042969 148.542969 C 130.96875 148.542969 127.703125 148.988281 127.589844 149.03125 C 122.09375 152.757812 118.550781 154.855469 116.261719 160.027344 C 116.484375 160.152344 116.710938 160.273438 116.933594 160.398438 C 111.617188 168.652344 105.972656 167.921875 105.203125 173.808594 C 105.015625 174.125 105.003906 174.507812 105.207031 174.820312 C 105.308594 175.3125 105.445312 175.796875 105.617188 176.269531 C 105.617188 176.269531 110.628906 176.921875 110.628906 176.921875 C 110.824219 175.597656 110.925781 175.882812 110.972656 175.199219 C 111.101562 174.824219 111.148438 174.40625 111.402344 174.082031 C 111.785156 173.632812 113.734375 170.382812 114.085938 169.980469 C 114.109375 169.953125 117.40625 167.308594 117.507812 167.25 C 117.945312 167.058594 118.433594 167.015625 118.886719 166.871094 C 119.128906 166.875 119.375 166.875 119.621094 166.871094 C 119.886719 165.902344 119.6875 163.640625 120.359375 162.246094 C 120.9375 161.707031 121.558594 160.554688 122.945312 158.796875 C 124.699219 157.421875 126.929688 155.179688 128.101562 154.457031 C 128.175781 154.421875 134.191406 151.566406 134.867188 151.339844 C 130.101562 155.261719 123.359375 158.050781 122.234375 164.09375 L 122.238281 164.007812 C 122.15625 164.632812 122.210938 165.269531 122.082031 165.890625 L 122.183594 165.894531 C 122.628906 166.128906 122.453125 165.957031 126.769531 166.625 L 126.6875 166.625 C 127.242188 166.679688 127.796875 166.726562 128.351562 166.726562 C 129.492188 165.296875 130.285156 164.621094 130.390625 160.351562 C 130.664062 161.554688 130.613281 161.90625 130.863281 162.597656 C 130.957031 164.566406 131.457031 161.941406 130.789062 167.648438 C 136.132812 171.414062 128.796875 168.332031 141.722656 168.4375 C 141.722656 168.4375 143.507812 168.75 147.441406 169.203125 C 149.332031 165.335938 148.800781 165.414062 149.410156 163.984375 C 149.425781 164.054688 149.414062 167.714844 149.414062 167.785156 C 149.402344 169.269531 151.585938 173.347656 151.816406 174.265625 C 151.898438 174.90625 151.902344 175.570312 152.132812 176.183594 C 152.5 182.015625 156.011719 185.960938 156.347656 186.476562 C 150.136719 182.980469 151.851562 173.453125 147.230469 171.671875 C 144.398438 170.710938 147.601562 170.828125 136.714844 170.84375 C 135.882812 170.824219 135.273438 171.585938 133.378906 172.703125 C 132.859375 172.984375 130.703125 178.726562 130.691406 178.886719 C 130.007812 184.339844 129.910156 183.199219 130.316406 184.125 C 130.644531 184.722656 130.746094 185.441406 131.1875 185.976562 C 131.015625 186.144531 131.320312 186.457031 131.492188 186.285156 C 132.839844 187.683594 139.15625 189.28125 142.246094 193.089844 C 137.6875 191.949219 131.457031 189 131.371094 188.917969 C 128.289062 186.003906 129.65625 188.019531 128.28125 185.5625 C 128.210938 185.136719 127.496094 183.253906 127.261719 182.808594 C 127.253906 182.675781 127.246094 182.542969 127.238281 182.414062 C 125.140625 182.378906 122.292969 182.398438 122.292969 182.398438 C 122.777344 182.132812 126.183594 180.894531 127.152344 180.664062 C 127.152344 180.664062 129.089844 174.601562 129.089844 174.601562 C 129.257812 174.382812 129.324219 174.113281 129.339844 173.839844 C 129.371094 173.765625 130.414062 171.894531 130.675781 171.542969 C 129.445312 170.101562 129.378906 169.714844 128.96875 169.601562 C 125.0625 168.4375 124.84375 167.617188 121.382812 168.488281 C 120.945312 168.480469 119.417969 168.664062 118.867188 168.925781 C 117.046875 170.605469 114.542969 172.707031 114.410156 173.125 C 113.785156 175.117188 112.335938 178.480469 111.898438 180.1875 C 111.648438 180.605469 111.710938 185.449219 111.886719 185.804688 C 112.097656 187.035156 112.519531 188.214844 112.832031 189.421875 C 112.945312 190.007812 113.511719 190.285156 113.960938 190.589844 C 114.679688 191.035156 115.3125 191.609375 116.015625 192.078125 C 118.183594 192.339844 119.082031 191.949219 121.234375 191.308594 C 124.777344 202.089844 123.714844 198.351562 126.765625 203.257812 C 131.460938 206.1875 140.671875 207.851562 142.949219 202.773438 C 143.003906 202.339844 143.09375 201.785156 142.734375 201.460938 C 140.808594 199.507812 141.109375 198.980469 134.667969 197.539062 C 134.195312 197.382812 134.226562 197.464844 131.390625 197.4375 C 130.960938 197.421875 130.832031 197.546875 129.414062 197.882812 C 128.796875 198.03125 128.164062 198.074219 127.542969 198.1875 C 128.179688 197.847656 128.628906 197.226562 129.292969 196.929688 C 133.980469 195.65625 135.078125 196.417969 137.761719 196.410156 C 140.6875 196.476562 146.769531 201.992188 147.726562 202.074219 C 148.269531 202.300781 150.09375 202.40625 150.167969 202.402344 C 150.332031 202.46875 150.519531 202.488281 150.683594 202.398438 C 152.9375 202.195312 152.507812 202.09375 153.167969 200.785156 C 153.347656 200.496094 153.1875 200.160156 153.113281 199.867188 C 153.179688 198.84375 151.988281 198.136719 151.472656 197.40625 C 144.316406 189.261719 146.511719 191.941406 145.542969 190.078125 C 138.644531 176.386719 142.410156 182.886719 140.949219 179.324219 C 140.871094 179.171875 140.796875 179.0625 138.273438 177.925781 C 139.347656 177.964844 140.316406 178.523438 141.375 178.632812 C 142.164062 177.660156 142.722656 175.511719 143.519531 174.6875 C 143.144531 178.15625 142.503906 179.957031 144.722656 184.8125 C 144.785156 185.230469 144.9375 185.632812 145.152344 185.992188 C 145.578125 188.390625 146.617188 189.011719 148.917969 192.449219 C 149.132812 192.75 153.777344 196.492188 153.84375 196.519531 C 160.042969 197.183594 156.152344 196.96875 159.421875 196.296875 C 159.683594 196.214844 159.996094 196.230469 160.195312 196.019531 C 161.410156 194.851562 161.246094 194.914062 161.238281 193.703125 C 160.976562 191.199219 161.761719 193.074219 160.101562 187.109375 C 160.023438 186.554688 160.660156 184.210938 160.835938 182.632812 C 161.285156 181.964844 164.46875 176.996094 164.796875 176.402344 C 166.226562 171.660156 167.371094 167.199219 163.09375 164.757812 C 159.90625 163.257812 161.175781 163.316406 156.136719 163.382812 C 154.699219 160.890625 151.824219 157.484375 151.75 157.410156 C 151.425781 157.324219 147.84375 156.703125 147.101562 157.191406 C 143.738281 159.511719 144.507812 158.089844 143.53125 161.242188 C 143.351562 161.789062 143.164062 162.332031 143.027344 162.890625 C 142.875 161.988281 143.351562 159.324219 143.300781 158.585938 C 143.386719 158.34375 143.40625 158.054688 143.617188 157.878906 C 144.460938 157.152344 146.203125 155.976562 146.714844 155.328125 C 147.597656 155.105469 149.546875 155.777344 150.894531 155.796875 C 151.382812 155.953125 151.910156 155.917969 152.40625 156.042969 C 153.066406 156.429688 153.597656 157 154.175781 157.496094 C 157.675781 160.089844 153.988281 159.609375 165.820312 163.179688 C 166.539062 163.410156 166.515625 163.890625 167.644531 164.734375 C 169.292969 162.742188 171.816406 159.128906 176.371094 159.089844 C 176.140625 158.640625 176.460938 158.148438 176.46875 157.679688 C 176.675781 157.09375 176.792969 156.484375 176.878906 155.871094 C 177.0625 155.460938 177.195312 155.027344 177.386719 154.621094 C 180.882812 148.332031 178.292969 151.640625 181 148.632812 C 182.128906 147.535156 183.1875 146.367188 184.371094 145.328125 C 179.964844 151.789062 180.070312 153.171875 178.5625 158.976562 C 179.039062 158.914062 179.523438 158.941406 180.003906 158.929688 C 179.492188 159.078125 178.980469 159.246094 178.460938 159.363281 C 178.441406 159.476562 178.421875 159.589844 178.402344 159.703125 C 178.253906 159.683594 178.105469 159.65625 177.960938 159.644531 C 177.960938 159.425781 177.453125 159.410156 177.425781 159.609375 C 177.230469 159.601562 177.035156 159.636719 176.855469 159.707031 C 176.203125 159.761719 174.066406 160.328125 173.507812 160.566406 C 170.554688 162.984375 170.535156 164.214844 168.566406 167.195312 C 168.453125 167.359375 168.488281 167.203125 168.492188 171.238281 C 168.511719 171.761719 167.375 174.824219 167.238281 175.175781 C 166.222656 177.667969 168.09375 174.445312 163.945312 180.34375 C 163.648438 180.777344 163.21875 181.125 163.046875 181.636719 C 162.746094 182.398438 162.230469 183.085938 162.09375 183.902344 C 162.089844 183.976562 161.976562 187.476562 162.234375 187.960938 C 162.703125 191.003906 163.066406 191.136719 163.539062 191.796875 C 163.867188 192.164062 164.078125 192.644531 164.492188 192.925781 C 166.847656 193.097656 166.894531 192.851562 167.160156 192.550781 C 167.496094 192.15625 167.902344 191.828125 168.207031 191.40625 C 168.824219 190.617188 169.71875 188.925781 170.074219 188.574219 C 170.148438 188.507812 172.710938 186.578125 173.171875 186.351562 C 177.730469 184.066406 176.71875 182.773438 179.398438 177.121094 C 181.609375 172.972656 181.628906 170.761719 187.453125 164.722656 C 187.101562 165.609375 186.441406 166.3125 186.035156 167.167969 C 185.570312 167.675781 182.796875 172.511719 182.324219 173.058594 C 181.066406 175.957031 179.460938 183.519531 175.964844 187.0625 C 174.664062 187.65625 173.367188 188.261719 172.109375 188.941406 C 172.109375 188.941406 170.957031 190.820312 170.957031 190.820312 L 170.957031 190.726562 C 170.894531 191.417969 170.90625 192.121094 170.949219 192.816406 L 170.949219 192.726562 C 171.144531 192.957031 171.371094 193.160156 171.578125 193.382812 C 175.5 193.121094 170.230469 194.125 179.949219 191.15625 C 181.171875 190.800781 185.378906 188.25 186.578125 187.765625 C 186.59375 187.75 189.039062 185.046875 189.136719 184.894531 C 189.242188 184.746094 191.539062 180.492188 191.902344 180.171875 C 191.4375 181.695312 189.226562 187.777344 189.226562 187.777344 L 189.195312 187.679688 C 189.210938 188.410156 188.363281 188.082031 193.527344 188.800781 C 193.613281 188.75 193.695312 188.695312 193.777344 188.632812 C 195.019531 187.039062 197.417969 186.015625 198.203125 184.160156 C 201.175781 179.441406 203.277344 173.011719 204.203125 167.574219 C 204.273438 167.367188 206.414062 164.832031 206.902344 164.34375 C 208.617188 163.429688 217.539062 158.625 218.800781 157.148438 C 221.207031 153.230469 220.320312 150.632812 220.757812 149.414062 C 220.738281 149.378906 220.699219 149.304688 220.683594 149.269531 C 220.460938 147.847656 220.503906 146.601562 220.320312 146.023438 C 220.332031 145.9375 220.359375 145.765625 220.371094 145.679688 C 220.65625 146.328125 221.894531 152.941406 221.914062 153.015625 C 222.074219 152.972656 229.394531 152.246094 230.902344 152.609375 C 230.902344 152.609375 237.148438 153.140625 237.148438 153.140625 C 237.148438 153.355469 237.546875 153.308594 237.695312 153.25 C 237.867188 153.351562 242.195312 154.433594 242.269531 154.445312 L 242.257812 154.527344 C 242.304688 154.523438 242.402344 154.515625 242.449219 154.511719 C 242.488281 149.347656 240.992188 147.839844 240.808594 146.097656 C 240.828125 146.121094 242.847656 149.273438 243.78125 150.578125 C 243.847656 151.628906 244.484375 154.214844 244.621094 154.535156 C 246.835938 156.765625 248.78125 158.292969 249.042969 158.75 C 248.976562 158.855469 249.078125 158.996094 249.15625 159.074219 C 249.265625 159.078125 249.332031 158.894531 249.292969 158.804688 L 249.371094 158.824219 C 249.667969 158.136719 250.203125 157.527344 250.359375 156.792969 C 250.589844 156.765625 250.503906 156.328125 250.46875 156.148438 C 250.640625 155.667969 250.695312 155.132812 250.78125 154.625 L 250.898438 154.621094 C 250.890625 153.785156 250.914062 152.949219 250.886719 152.113281 L 250.910156 152.039062 C 250.941406 152.183594 252.277344 155.636719 252.429688 156.003906 C 252.503906 156.042969 255.394531 156.957031 255.707031 156.902344 C 255.683594 157.097656 256.039062 157.101562 256.152344 157.003906 C 256.152344 157.003906 256.675781 157.152344 258.898438 158.316406 C 259.125 158.425781 259.347656 158.59375 259.617188 158.566406 C 255.054688 152.273438 254.457031 151.953125 244.894531 146.308594 C 242.234375 145.851562 243.652344 144.992188 235.300781 144.6875 C 235.457031 144.621094 235.625 144.566406 235.785156 144.503906 C 236.261719 144.480469 239.421875 144.15625 240.613281 143.824219 C 240.792969 143.878906 241.234375 143.964844 241.285156 143.742188 C 242.101562 143.96875 242.410156 144.304688 243.453125 144.585938 C 243.453125 144.585938 241.835938 143.253906 240.898438 142.382812 C 239.992188 141.75 239.734375 140.835938 237.449219 140.824219 L 237.445312 140.738281 C 236.816406 140.714844 236.210938 140.527344 235.589844 140.484375 C 235.378906 140.375 235.140625 140.402344 234.921875 140.417969 C 234.910156 140.214844 234.519531 140.257812 234.382812 140.320312 C 234.347656 140.292969 234.277344 140.230469 234.242188 140.203125 C 234.054688 140.203125 233.871094 140.207031 233.691406 140.203125 L 233.691406 140.109375 C 232.222656 140.015625 230.796875 139.480469 229.320312 139.582031 C 228.589844 139.757812 224.414062 140.480469 223.46875 140.523438 L 223.464844 140.621094 C 223.25 140.625 223.023438 140.597656 222.824219 140.695312 C 222.03125 140.746094 219.734375 141.152344 219.714844 141.152344 L 219.714844 141.257812 C 219.640625 141.257812 213.820312 143.621094 208.542969 147.390625 C 208.46875 147.457031 206.761719 151.277344 206.492188 152.027344 C 206.328125 152.554688 205.6875 152.691406 205.457031 153.160156 C 205.015625 153.386719 202.941406 155.035156 202.617188 155.484375 C 201.796875 155.933594 197.265625 158.871094 197.265625 158.871094 C 197.191406 158.90625 191.410156 161.9375 191.164062 162.15625 C 190.9375 162.214844 190.714844 162.285156 190.492188 162.34375 C 191.296875 161.640625 197.707031 156.90625 198.621094 156.261719 C 201.769531 153.820312 198.714844 156.65625 205.253906 150.15625 C 205.429688 149.980469 205.601562 149.785156 205.675781 149.542969 C 207.046875 145.875 207.128906 147.921875 207.582031 142.886719 C 207.800781 143.789062 207.921875 144.714844 208.085938 145.625 C 209.070312 145.125 212.1875 142.53125 214.734375 140.558594 C 215.199219 140.488281 217.011719 139.945312 217.109375 139.910156 C 217.40625 139.882812 217.707031 139.820312 217.976562 139.683594 C 218.246094 139.640625 218.519531 139.59375 218.777344 139.492188 C 219.074219 139.464844 219.371094 139.398438 219.644531 139.269531 C 219.882812 139.234375 220.117188 139.175781 220.339844 139.078125 C 220.640625 139.050781 220.933594 138.980469 221.207031 138.851562 C 222.535156 138.605469 223.828125 138.191406 225.121094 137.808594 C 225.425781 138.003906 225.253906 137.402344 225.054688 137.65625 C 224.914062 137.339844 224.628906 137.117188 224.382812 136.886719 C 217.269531 131.089844 226.984375 136.582031 204.121094 130.652344 C 202.925781 130.421875 201.769531 130.023438 200.5625 129.84375 C 200.203125 129.679688 198.429688 129.253906 197.824219 129.195312 C 197.585938 129.101562 192.636719 129.351562 192.277344 129.398438 C 185.609375 130.246094 186.078125 128.550781 182.597656 127.757812 C 181.984375 127.429688 176.835938 126.90625 176.757812 126.898438 C 176.386719 126.734375 175.976562 126.84375 175.597656 126.914062 M 168.125 132.164062 C 168.148438 132.5 168.449219 132.003906 168.125 132.164062 M 168.410156 132.269531 C 168.425781 132.613281 168.71875 132.109375 168.410156 132.269531 M 243.515625 144.609375 C 243.578125 144.675781 243.578125 144.675781 243.515625 144.609375 M 125.628906 146.960938 C 123.730469 147.871094 121.886719 148.898438 119.953125 149.730469 C 119.789062 149.796875 109.875 158.484375 109.800781 158.558594 C 109.582031 158.652344 109.410156 158.816406 109.269531 159.003906 C 107.660156 160.085938 107.859375 160.082031 107.398438 161.085938 C 106.773438 162.691406 106.367188 162.242188 106.625 164.765625 C 114.390625 162.332031 113.109375 163.085938 114.632812 159.871094 C 116.03125 156.398438 119.949219 151.753906 120.023438 151.691406 C 124.59375 148.585938 125.664062 148.355469 129.125 146.71875 C 126.332031 146.578125 126.105469 146.761719 125.628906 146.960938 M 229.707031 153.863281 C 228.574219 153.96875 227.449219 154.160156 226.3125 154.230469 C 225.914062 154.363281 225.460938 154.207031 225.089844 154.40625 C 223.269531 154.402344 223.410156 154.515625 220.808594 157.699219 C 215.671875 161.4375 219.480469 159.441406 212.898438 162.308594 C 210.851562 163.097656 212.503906 162.332031 208.492188 165.417969 C 206.6875 167.152344 207.929688 165.234375 205.570312 169.804688 C 205.328125 170.242188 205.230469 170.742188 204.984375 171.175781 L 205.003906 171.082031 C 203.996094 173.640625 203.941406 178.820312 198.746094 188.691406 C 199.207031 188.734375 204.25 187.875 206.472656 186.597656 C 206.625 186.519531 210.695312 184.484375 210.824219 184.375 C 211.410156 183.90625 213.066406 182.777344 213.28125 182.675781 C 213.179688 182.9375 210.273438 186.078125 210.070312 186.335938 C 209.570312 186.699219 207.347656 187.488281 206.765625 187.980469 C 206.636719 187.886719 206.484375 188.050781 206.417969 188.148438 C 206.328125 188.300781 206.585938 188.332031 206.660156 188.242188 L 206.628906 188.3125 C 209.121094 188.886719 208.621094 189.300781 210.15625 189.183594 C 210.183594 189.382812 210.578125 189.375 210.71875 189.265625 C 211.628906 189.625 224.832031 191.140625 227.863281 190.070312 C 228.921875 189.9375 232.265625 189.007812 232.597656 188.953125 C 233.5625 188.371094 234.398438 187.59375 235.378906 187.035156 C 235.773438 186.675781 236.613281 185.320312 237.015625 185.066406 C 236.980469 185.285156 236.929688 185.5 236.910156 185.71875 C 236.789062 186.03125 236.746094 186.367188 236.691406 186.695312 C 236.578125 186.914062 236.496094 187.148438 236.488281 187.394531 C 236.351562 187.660156 236.273438 187.945312 236.285156 188.246094 C 236.136719 188.332031 231.957031 192.238281 229.582031 193.441406 C 241.683594 198.304688 244.234375 202.449219 246.976562 205.289062 C 246.855469 205.253906 246.734375 205.21875 246.617188 205.1875 C 246.554688 205.015625 240.121094 199.652344 239.785156 199.660156 C 230.957031 194.679688 220.308594 192.101562 218.835938 191.453125 C 217.703125 191.316406 212.257812 190.113281 210.867188 189.921875 C 210.734375 189.894531 200.402344 189.425781 200.3125 189.46875 C 200.167969 189.34375 200.070312 189.367188 200.015625 189.539062 C 199.429688 189.472656 197.582031 189.773438 197.492188 189.808594 C 197.199219 189.8125 195.160156 190.039062 194.957031 190.140625 C 194.613281 190.136719 189.425781 190.707031 189.324219 190.777344 C 186.945312 190.84375 176.011719 193.414062 172.75 194.179688 C 152.949219 200.632812 150.691406 203.984375 142.003906 210.707031 C 140.023438 212.089844 140.449219 211.675781 136.25 218.421875 C 135.734375 219.164062 134.941406 222.773438 134.878906 223.105469 C 134.699219 224.445312 135.132812 225.761719 135.191406 227.09375 C 135.195312 227.097656 136.480469 229.140625 136.484375 229.144531 C 138.816406 230.742188 138.757812 229.929688 141.5625 230.210938 C 141.054688 230.59375 139.953125 232.457031 139.300781 232.882812 C 139.582031 233.269531 139.738281 233.738281 140.050781 234.101562 C 141.617188 237.292969 145.8125 240.203125 148.957031 241.832031 C 162.390625 245.214844 159.867188 244.882812 165.625 243.398438 C 160.539062 239.261719 160.113281 239.164062 159.628906 238.519531 C 162.828125 240.230469 162.769531 241.367188 170.371094 242.121094 C 170.957031 242.273438 175.789062 241.230469 175.863281 241.191406 C 181.941406 239.164062 180.082031 239.921875 181.460938 240.191406 C 182.460938 240.609375 183.550781 240.757812 184.628906 240.722656 C 184.941406 240.9375 185.347656 240.804688 185.707031 240.855469 C 185.980469 240.976562 186.296875 240.976562 186.574219 240.859375 C 186.859375 240.828125 187.179688 240.894531 187.4375 240.734375 C 189.980469 240.828125 189.957031 240.363281 194.621094 237.3125 C 195.761719 237.644531 197.527344 238.402344 197.875 238.425781 C 198.105469 238.585938 202.746094 238.875 202.910156 238.875 C 204 238.476562 204.613281 238.453125 208.972656 236.753906 C 209.402344 236.558594 210.882812 236.609375 211.285156 236.46875 C 215.421875 236.261719 214.753906 236.25 218.757812 235.058594 C 223.179688 233.664062 220.449219 235.597656 225.507812 229.78125 C 225.515625 229.839844 225.527344 229.953125 225.535156 230.011719 C 225.515625 230.0625 225.238281 232.054688 225.144531 234.230469 C 225.761719 234.222656 226.359375 234.417969 226.96875 234.480469 C 228.238281 234.828125 229.164062 234.320312 230.851562 234.222656 C 235.714844 232.484375 236.640625 231.378906 237.835938 230.039062 C 240.390625 227.082031 238.566406 230.625 242.9375 223.660156 C 249.03125 213.960938 246.605469 216.859375 248.835938 212.027344 C 248.753906 212.019531 241.578125 211.054688 240.796875 210.929688 C 240.363281 210.824219 223.664062 209.570312 222.167969 210.636719 C 220.132812 210.636719 213.339844 211.910156 211.980469 212.03125 C 211.617188 211.996094 211.269531 211.859375 210.902344 211.882812 C 210.644531 211.710938 210.320312 211.78125 210.03125 211.753906 C 206.03125 210.878906 209.027344 212.164062 203.449219 209.378906 C 203.160156 209.175781 192.597656 210.265625 192.34375 210.421875 C 192.113281 210.421875 191.871094 210.410156 191.652344 210.5 C 191.226562 210.5625 190.746094 210.402344 190.363281 210.636719 C 189.246094 210.554688 182.628906 211.136719 179.316406 212.179688 C 168.753906 212.277344 160.441406 214.386719 151.9375 218.46875 C 148.574219 220.367188 152.546875 217.027344 146.246094 223.949219 C 145.867188 225.449219 145.507812 226.960938 145.085938 228.453125 C 145.007812 226.992188 145.078125 225.527344 145.03125 224.066406 C 144.746094 224.496094 142.589844 227.429688 142.109375 227.605469 C 142.746094 226.78125 144.886719 223.410156 144.996094 223.191406 C 143.132812 223.03125 144.78125 223.683594 140.964844 221.628906 C 140.804688 221.085938 140.675781 220.492188 140.679688 219.914062 C 141.75 220.179688 142.824219 220.425781 143.890625 220.691406 C 144.582031 220.640625 145.289062 220.535156 145.953125 220.347656 C 146.125 220.402344 146.578125 220.464844 146.589844 220.226562 C 146.917969 220.167969 147.148438 219.863281 147.425781 219.691406 C 154.042969 214.972656 147.902344 218.339844 159.746094 213.546875 C 160.25 213.4375 170.042969 210.855469 171.464844 210.382812 C 170.574219 208.617188 170.34375 208.601562 169.582031 204.582031 C 169.8125 203.867188 170.976562 201.597656 171.191406 201.28125 C 171.308594 202.644531 171.199219 204.019531 171.253906 205.386719 C 171.59375 206.074219 171.652344 206.867188 172.011719 207.550781 C 172.042969 207.578125 174.71875 209.371094 175.054688 209.511719 C 175.734375 209.753906 179.183594 210.027344 179.496094 209.929688 C 181.515625 209.46875 183.539062 209.015625 185.539062 208.464844 C 186.359375 208.308594 193.609375 209.160156 194.738281 208.328125 C 195.398438 208.34375 202.328125 207.636719 202.804688 207.574219 C 203.074219 206.980469 203.988281 203.410156 204.003906 203.335938 C 205.125 202.949219 206.183594 202.386719 207.316406 202.03125 C 206.761719 203.027344 206.003906 203.886719 205.363281 204.824219 C 205.289062 205.75 205.15625 206.679688 204.910156 207.578125 C 208.816406 210.9375 210.382812 210.199219 217.421875 209.375 C 232.058594 207.84375 240.449219 209.167969 241.148438 209.164062 C 241.230469 209.21875 246.375 209.832031 247.238281 209.773438 L 247.234375 209.910156 C 247.582031 209.910156 247.929688 209.90625 248.277344 209.921875 C 248.4375 209.992188 248.613281 209.992188 248.789062 210.007812 C 248.761719 209.933594 248.042969 207.871094 247.988281 207.558594 C 248.78125 208.222656 249.195312 208.46875 250.066406 209.191406 C 252.726562 206.554688 259.417969 204.628906 260.742188 203.574219 C 260.742188 203.574219 263.441406 197.511719 263.523438 197.355469 C 263.929688 197.347656 264.335938 197.34375 264.746094 197.351562 C 264.746094 197.355469 262.796875 204.046875 262.738281 204.199219 C 261.554688 204.871094 260.265625 205.324219 259.0625 205.964844 C 251.808594 209.523438 253.496094 208.597656 252.683594 209.8125 C 247.398438 218.230469 249.035156 215.277344 247.097656 222.5 C 246.851562 223.644531 246.894531 222.769531 247.507812 224.789062 C 247.78125 225.28125 247.003906 225.171875 252.128906 225.164062 C 252.171875 225.214844 259.421875 231.671875 259.605469 231.789062 C 265.203125 232.757812 262.65625 233.007812 264.601562 232.105469 C 265.808594 231.515625 271.761719 224.652344 271.652344 216 C 272.273438 214.652344 270.929688 211.476562 270.660156 210.515625 C 268.828125 211.539062 267.058594 212.691406 265.152344 213.578125 C 271.058594 208.699219 268.792969 211.46875 271.351562 207.820312 C 271.625 207.265625 271.550781 206.636719 271.554688 206.039062 C 271.613281 205.847656 271.660156 205.648438 271.667969 205.445312 C 271.828125 204.996094 271.753906 204.511719 271.753906 204.046875 L 271.613281 204.054688 C 271.035156 200.511719 271.273438 204.214844 270.699219 198.304688 C 270.644531 197.546875 270.867188 196.800781 270.8125 196.042969 C 271.007812 195.671875 270.910156 195.242188 270.917969 194.84375 C 271.101562 194.089844 271.128906 194.296875 270.292969 193.449219 C 270.039062 193.015625 269.253906 192.332031 268.898438 192.347656 C 269.03125 192.082031 268.429688 192.070312 268.5625 192.335938 L 268.488281 192.332031 C 268.214844 192.746094 267.914062 193.144531 267.554688 193.488281 C 265.542969 193.496094 263.535156 193.488281 261.523438 193.492188 L 261.542969 193.605469 L 261.453125 193.605469 C 260.917969 194.996094 259.066406 198.460938 258.84375 198.941406 C 258.765625 199 253.785156 202.085938 253.574219 202.179688 C 253.679688 201.984375 256.941406 198.441406 257.015625 198.371094 C 257.300781 197.894531 257.859375 197.609375 258.011719 197.054688 C 258.457031 195.878906 259.582031 193.625 259.535156 193.160156 C 259.746094 193.160156 259.707031 192.761719 259.644531 192.621094 C 259.820312 192.378906 259.644531 192.589844 259.960938 190.777344 C 259.613281 190.164062 257.59375 187.835938 257.113281 187.492188 L 257.203125 187.511719 C 257.0625 187.46875 255.78125 187.113281 255.417969 187.097656 C 254.835938 186.890625 254.214844 186.832031 253.621094 186.683594 C 253.628906 186.074219 253.976562 185.523438 253.921875 184.722656 C 253.972656 184.691406 254.074219 184.628906 254.125 184.597656 C 258.726562 187.257812 258.730469 185.691406 262.105469 190.648438 C 262.578125 190.734375 263.046875 190.847656 263.515625 190.953125 C 263.90625 190.871094 266.835938 189.875 267.195312 189.242188 C 267.480469 188.804688 268.152344 188.65625 268.238281 188.097656 C 268.359375 187.761719 268.429688 185.125 268.433594 185.050781 C 268.574219 184.707031 268.507812 184.324219 268.519531 183.960938 C 268.707031 183.945312 268.707031 183.402344 268.523438 183.378906 C 268.523438 183.332031 268.515625 183.238281 268.511719 183.191406 C 266.179688 176.878906 266.136719 177.410156 265.496094 176.984375 C 264.222656 176.171875 263.105469 175.148438 261.832031 174.339844 C 259.980469 176.160156 254.625 182.90625 254.460938 183.167969 C 253.941406 183.371094 253.386719 183.53125 252.867188 183.75 C 252.601562 183.769531 252.347656 183.847656 252.113281 183.96875 C 251.660156 184.054688 251.253906 184.277344 250.820312 184.421875 C 250.679688 185.058594 250.386719 185.640625 250.101562 186.21875 C 250.023438 186.609375 250.046875 187.015625 250.082031 187.410156 C 250.253906 187.835938 250.398438 188.273438 250.492188 188.726562 C 250.476562 188.71875 247.710938 187.5 247.675781 187.488281 C 247.628906 186.683594 247.671875 185.871094 247.660156 185.0625 C 247.734375 185 249.433594 183.453125 249.664062 183.0625 C 249.835938 183.042969 250.019531 183.046875 250.179688 182.96875 C 253.585938 182.550781 253.410156 182.082031 255.667969 179.882812 C 256.328125 179.238281 256.625 178.339844 257.117188 177.574219 C 258.867188 174.769531 258.6875 174.109375 259.542969 171.972656 C 259.40625 171.660156 259.324219 171.328125 259.316406 170.988281 L 259.269531 170.914062 C 258.625 167.761719 259.25 169.007812 255.128906 165.632812 C 249.484375 163.523438 253.121094 162.632812 247.503906 164.277344 C 241.660156 168.382812 246.945312 164.9375 241.496094 171.21875 C 237.128906 177.632812 240.394531 172.152344 237.441406 179.28125 C 237.273438 179.679688 237.910156 181.203125 237.941406 181.28125 C 237.960938 181.613281 238.03125 181.941406 238.160156 182.253906 C 238.160156 182.304688 238.164062 182.410156 238.167969 182.460938 C 237.835938 182.171875 236.214844 180.027344 236.113281 179.773438 C 236.058594 178.8125 235.699219 177.882812 235.785156 176.914062 C 235.984375 176.632812 238.867188 171.128906 241.632812 168.433594 C 241.703125 168.277344 242.320312 166.277344 242.371094 165.914062 C 242.597656 165.472656 242.644531 164.96875 242.832031 164.511719 C 242.902344 164.183594 245.949219 162.828125 247.152344 162.019531 C 247.003906 161.769531 243.828125 157.328125 243.359375 157.160156 C 243.285156 157.125 239.242188 155.308594 239.003906 155.144531 C 238.914062 155.078125 238.8125 155.050781 238.699219 155.058594 L 238.699219 154.933594 C 238.355469 154.929688 238.011719 154.9375 237.671875 154.914062 C 237.613281 154.890625 234.1875 154.355469 233.382812 154.304688 L 233.378906 154.210938 C 232.441406 154.167969 231.519531 153.9375 230.582031 153.859375 C 230.308594 153.738281 229.976562 153.746094 229.707031 153.863281 M 251.234375 158.929688 C 250.773438 159.417969 250.257812 159.855469 249.832031 160.375 C 250.039062 160.878906 250.273438 161.382812 250.59375 161.828125 C 251.519531 161.792969 252.4375 161.9375 253.347656 162.078125 C 255.230469 163.339844 259.1875 165.640625 259.1875 165.640625 C 259.511719 166.046875 261.230469 168.964844 261.507812 169.472656 C 261.714844 170.527344 261.824219 171.601562 261.976562 172.664062 C 262.019531 172.679688 262.109375 172.707031 262.15625 172.722656 L 262.167969 172.78125 C 263.167969 173.167969 264.03125 173.824219 265.03125 174.210938 C 265.746094 174.785156 266.492188 175.316406 267.21875 175.882812 C 267.429688 175.242188 267.476562 174.546875 267.789062 173.941406 C 262.089844 162.476562 264.917969 167.488281 263.082031 165.085938 C 262.773438 164.640625 262.332031 164.3125 262.058594 163.84375 C 261.917969 163.730469 261.765625 163.625 261.605469 163.550781 C 261.910156 164.550781 262.605469 166.671875 262.75 167.738281 C 262.359375 167.261719 259.234375 161.421875 259.199219 161.34375 C 256.039062 158.46875 255.046875 158.789062 252.464844 157.738281 C 252.015625 158.09375 251.648438 158.539062 251.234375 158.929688 M 259.570312 158.613281 C 259.636719 158.675781 259.636719 158.675781 259.570312 158.613281 M 109.332031 165.464844 C 108.984375 165.449219 106.542969 166.15625 106.308594 166.261719 C 102.519531 167.96875 103.691406 167.339844 101.070312 170.421875 C 100.621094 170.949219 100.484375 170.734375 99.277344 173.011719 C 98.277344 174.878906 98.382812 174.222656 98.355469 175.308594 C 98.382812 176.199219 98.046875 178.644531 99.109375 180.1875 C 104.265625 180.007812 102.066406 178.230469 103.820312 177.21875 C 103.03125 175.625 103.378906 175.585938 103.019531 174.066406 C 102.976562 173.828125 102.875 173.554688 103.050781 173.347656 C 105.007812 170.316406 104.257812 170.246094 106.832031 168.25 C 106.984375 168.136719 109.285156 165.992188 109.644531 165.558594 C 110.027344 165.457031 109.363281 165.171875 109.332031 165.464844 M 266.09375 167.320312 C 269.082031 173.628906 271.105469 173.777344 268.835938 178.015625 C 270.644531 182.808594 269.976562 183.296875 270.691406 185.355469 C 270.707031 185.65625 270.6875 185.960938 270.773438 186.25 L 270.796875 186.144531 C 270.765625 186.359375 270.828125 186 270.320312 188.484375 C 270.40625 188.917969 271.359375 191 271.894531 192.5625 L 271.945312 192.546875 C 272.019531 192.8125 272.113281 193.078125 272.230469 193.332031 C 272.285156 193.023438 272.335938 192.714844 272.367188 192.40625 C 272.519531 192.238281 273.300781 189.148438 273.421875 187.429688 L 273.308594 187.429688 C 273.355469 186.09375 272.664062 181.28125 272.453125 178.734375 L 272.40625 178.640625 C 272.140625 174.539062 271.398438 173.230469 269.480469 169.648438 C 268.683594 168.984375 266.773438 167.695312 266.421875 167.554688 C 266.441406 167.386719 266.1875 167.398438 266.09375 167.320312 M 105.71875 178.527344 C 103.582031 179.355469 104.453125 179.097656 103.933594 181.445312 C 103.914062 181.519531 103.671875 187.28125 102.675781 188.851562 C 101.558594 190.65625 100.550781 193.363281 100.851562 195.558594 C 101.296875 198.324219 100.738281 196.792969 102.3125 198.917969 C 102.601562 199.339844 105.597656 201.664062 106.261719 201.859375 C 108.871094 202.777344 109.527344 203.214844 110.710938 203.5625 C 120.386719 206.382812 115.894531 206.015625 122.105469 206.015625 C 120.285156 204.558594 120.746094 204.117188 118.636719 203.359375 C 112.597656 201.535156 112.910156 201.980469 108.191406 198.5625 C 107.679688 198.074219 107.421875 197.398438 106.984375 196.851562 C 105.945312 195.242188 106.878906 197.453125 104.625 192.335938 C 104.539062 191.21875 104.882812 190.132812 104.953125 189.023438 C 105.382812 188.59375 105.789062 188.136719 106.253906 187.742188 C 105.949219 190.75 104.921875 192.78125 109.144531 197.820312 C 110.671875 199.859375 122.019531 202.640625 123.238281 203.964844 C 127.472656 208.429688 133.113281 209.96875 139.199219 210.257812 C 140.488281 210.332031 139.695312 210.199219 141.496094 208.738281 C 141.496094 208.738281 144.050781 206.902344 144.050781 206.902344 C 145.03125 205.648438 145.285156 203.214844 145.34375 202.914062 C 144.976562 202.695312 144.617188 202.464844 144.25 202.25 C 143.953125 203.222656 143.730469 205.171875 143.152344 205.585938 C 140.707031 207.441406 141.460938 207.175781 140.421875 207.34375 C 139.96875 207.390625 136.460938 207.726562 135.675781 207.597656 C 129.605469 207.363281 131.003906 207.441406 128.703125 206.019531 C 125.34375 203.988281 126.277344 204.257812 124.921875 202.804688 C 124.621094 202.378906 124.1875 202.070312 123.898438 201.640625 C 123.601562 201.003906 123.355469 200.339844 123.042969 199.710938 C 122.949219 199.722656 122.855469 199.730469 122.761719 199.742188 C 122.75 199.710938 120.425781 193.925781 120.425781 193.925781 C 116.882812 193.519531 111.445312 194.179688 109.730469 183.664062 C 109.851562 181.96875 109.9375 180.269531 110.109375 178.578125 C 108.992188 178.976562 107.132812 178.019531 105.71875 178.527344 M 101.238281 181.640625 C 100.390625 182.125 99.414062 182.335938 98.605469 182.890625 C 98.605469 182.890625 96.773438 186.179688 96.773438 186.179688 C 95.1875 189.410156 95.839844 188.792969 94.886719 191.058594 C 94.710938 191.46875 94.722656 195.523438 94.863281 196.039062 C 95.265625 198.726562 94.800781 198.113281 96.464844 200.984375 C 96.394531 201.089844 96.515625 201.285156 96.644531 201.261719 C 96.730469 201.210938 96.828125 201.082031 96.773438 200.984375 C 97.203125 200.3125 97.25 199.566406 98.679688 198.222656 C 98.699219 191.933594 98.53125 194.746094 99.511719 191.539062 C 99.773438 190.5 101.371094 187.675781 101.46875 187.539062 C 102.089844 186.632812 101.578125 187.488281 102.03125 181.558594 C 101.761719 181.550781 101.492188 181.558594 101.238281 181.640625 M 274.890625 184.433594 C 274.851562 184.710938 274.855469 185.007812 275.035156 185.242188 C 274.917969 186 275.007812 186.773438 274.984375 187.539062 L 275.089844 187.542969 C 275.148438 188.707031 274.652344 191.480469 273.84375 193.183594 C 273.160156 194.84375 272.554688 195.570312 272.609375 195.984375 C 273.898438 207.539062 273.746094 200.359375 272.832031 209.40625 C 272.769531 210.238281 272.382812 210.230469 273.503906 213.25 C 273.609375 216.761719 273.316406 218.539062 273.316406 218.539062 C 274.828125 216.191406 275.601562 210.109375 275.3125 209.371094 C 275.253906 208.699219 275.429688 207.996094 275.199219 207.351562 C 275.171875 206.839844 275.246094 206.3125 275.097656 205.820312 C 275.089844 205.457031 275.164062 205.066406 274.976562 204.738281 C 275.03125 202.210938 275.785156 193.0625 275.679688 191.296875 C 275.761719 191.167969 275.765625 190.972656 275.699219 190.839844 C 275.726562 190.808594 275.777344 190.75 275.804688 190.71875 C 275.753906 190.574219 275.394531 186.242188 275.328125 186.160156 C 275.265625 185.878906 275.242188 185.574219 275.09375 185.324219 C 275.089844 185.015625 274.992188 184.71875 274.890625 184.433594 M 277.714844 192 C 276.226562 197.761719 277.855469 209.515625 277.15625 211.757812 C 276.320312 216.25 277.542969 216.214844 267.378906 232.375 C 266.703125 233.433594 266.988281 233.425781 265.195312 234.285156 C 265.167969 234.960938 265.234375 235.640625 265.152344 236.316406 C 264.445312 239.597656 264.695312 240.265625 264.316406 240.691406 C 261.507812 243.722656 264.03125 242.5625 258.222656 243.789062 C 257.816406 243.878906 257.398438 243.863281 256.988281 243.871094 C 256.1875 243.453125 253.25 244.046875 251.699219 242.953125 C 251.347656 242.699219 248.339844 240.53125 247.296875 239.953125 C 246.574219 239.796875 245.835938 239.695312 245.097656 239.679688 C 244.730469 239.496094 244.308594 239.574219 243.914062 239.5625 C 236.222656 236.558594 242.871094 240.050781 235.476562 234.660156 C 234.230469 235.402344 232.890625 235.972656 231.609375 236.65625 C 232.820312 238.890625 230.820312 237.035156 235.035156 240.425781 C 235.644531 240.8125 236.320312 241.085938 236.957031 241.421875 C 238.699219 242.210938 238.292969 242.601562 240.429688 242.621094 C 240.933594 242.800781 243.4375 242.75 243.957031 242.871094 C 244.367188 242.933594 249.148438 244.355469 252.117188 246.296875 C 252.371094 246.480469 256.46875 247.222656 256.800781 247.21875 C 257.1875 247.375 257.636719 247.382812 258.023438 247.214844 C 265.652344 245.152344 262.304688 246.875 267.558594 243.109375 C 268.242188 242.636719 268.859375 242.074219 269.59375 241.679688 C 269.082031 242.570312 268.324219 243.28125 267.707031 244.09375 C 266.707031 245.269531 267.105469 245.867188 261.078125 248.433594 C 262.542969 248.460938 264.007812 248.46875 265.46875 248.429688 C 270.507812 245.863281 271.554688 243.597656 272.765625 242.476562 C 272.832031 242.417969 276.382812 237.492188 276.539062 237.207031 C 276.753906 236.984375 277.039062 236.714844 276.9375 236.375 C 277.21875 234.65625 277.324219 232.910156 277.699219 231.207031 C 275.085938 234.640625 272.601562 237.425781 272.601562 237.425781 C 273.136719 236.390625 276.175781 231.058594 277.144531 228.800781 L 277.277344 228.820312 C 277.277344 228.769531 277.28125 221.105469 277.292969 221.058594 C 277.980469 221.984375 278.246094 223.164062 278.988281 224.050781 C 279.210938 223.125 280.601562 216.542969 280.621094 215.652344 C 280.601562 207.476562 280.675781 207.867188 280.523438 207.457031 C 280.496094 205.746094 280.039062 202.644531 279.984375 202.542969 C 279.808594 197.09375 278.609375 194.527344 277.714844 192 M 100.339844 200.710938 C 99.992188 201.550781 99.867188 202.460938 99.601562 203.328125 C 99.433594 203.699219 100.421875 206.308594 100.707031 206.796875 C 107.523438 211.167969 104.332031 206.601562 121.804688 211.582031 C 124.539062 212.597656 129.492188 216.660156 129.492188 216.660156 C 129.707031 216.914062 130.0625 216.8125 130.351562 216.824219 C 130.578125 216.875 130.8125 216.894531 131.046875 216.910156 C 132.300781 217.402344 133.710938 216.960938 134.925781 216.378906 C 134.832031 216.21875 132.136719 211.855469 131.570312 211.605469 C 131.527344 211.585938 123.835938 207.78125 123.789062 207.792969 C 117.132812 208.742188 118.308594 208.425781 116.832031 208.222656 C 116.53125 208.0625 116.195312 207.996094 115.859375 207.996094 C 115.246094 207.765625 114.589844 207.691406 113.960938 207.519531 C 108.433594 206.3125 108.566406 205.648438 105.429688 204.570312 C 102.894531 203.753906 102.785156 203.070312 102.332031 202.660156 C 101.664062 202.011719 101.035156 201.324219 100.339844 200.710938 M 97.550781 204.960938 C 97.53125 205.242188 97.449219 207.972656 97.617188 208.332031 C 99.003906 211.546875 98.203125 210.773438 99.589844 211.886719 C 101.730469 213.585938 101.867188 213.605469 102.089844 213.660156 C 104.730469 214.296875 105.613281 215.21875 108.953125 215.46875 C 121.867188 217.222656 119.855469 218.179688 131.117188 222.269531 C 131.785156 222.304688 132.445312 222.128906 133.113281 222.074219 C 133.277344 221.222656 133.582031 220.398438 133.683594 219.535156 C 131.386719 219.503906 132.546875 220.808594 126.777344 216.511719 C 121.546875 212.542969 122.855469 213.507812 118.109375 212.144531 C 115.921875 211.578125 110.859375 210.6875 110.121094 210.710938 C 109.972656 210.660156 109.816406 210.632812 109.664062 210.621094 L 109.570312 210.546875 C 108.796875 210.390625 104.429688 210.65625 103.90625 210.390625 C 103.832031 210.355469 100.5625 208.792969 100.410156 208.660156 C 98.542969 207.003906 98.277344 207.070312 98.132812 206.664062 C 97.925781 206.101562 97.804688 205.507812 97.550781 204.960938 M 273.222656 218.601562 C 273.054688 218.910156 273.566406 218.621094 273.222656 218.601562 M 237.0625 233.488281 C 240.625 237.265625 240.074219 236.585938 242.96875 237.484375 C 245.289062 238.003906 242.574219 237.773438 248.070312 237 C 248.773438 238.046875 249.695312 238.921875 250.414062 239.957031 C 250.921875 240.738281 251.886719 240.964844 252.683594 241.335938 C 254.265625 241.9375 254.324219 242.527344 256.21875 242.507812 L 256.21875 242.390625 C 256.691406 242.417969 259.703125 242.132812 259.851562 242.070312 C 260.78125 241.667969 261.726562 241.296875 262.652344 240.890625 C 263.039062 239.503906 263.113281 238.054688 263.484375 236.667969 C 263.1875 235.75 262.648438 234.933594 262.40625 233.996094 C 257.488281 232.597656 258.902344 234.09375 257.066406 232.140625 C 256.875 231.953125 253.363281 228.074219 253.136719 227.929688 C 251.730469 227.695312 250.984375 227.207031 246.707031 226.640625 C 246.203125 226.574219 245.707031 226.476562 245.214844 226.355469 C 245.027344 225.714844 244.878906 225.066406 244.714844 224.421875 C 243.785156 226.210938 237.117188 233.414062 237.0625 233.488281 Z M 237.0625 233.488281 "/></g><path style=" stroke:none;fill-rule:nonzero;fill:#000000;fill-opacity:1;" d="M 209.335938 137.851562 C 208.617188 137.96875 207.917969 137.730469 207.210938 137.679688 C 200.785156 136.8125 204.046875 137.101562 198.660156 138.214844 C 198.125 138.347656 198.347656 137.988281 195.820312 141.132812 C 195.753906 142.917969 195.921875 144.398438 195.691406 144.960938 C 194.734375 147.316406 195.164062 147.332031 194.257812 148.125 C 193.691406 148.589844 193.191406 149.144531 192.539062 149.492188 C 192.738281 148.339844 194.414062 145.949219 193.679688 143.71875 C 192.328125 140.882812 193.304688 141.519531 189.875 139.484375 C 186.898438 137.652344 187.558594 138.488281 183.160156 137.949219 C 182.210938 137.765625 181.515625 138.542969 175.925781 141.128906 C 175.429688 140.722656 174.9375 140.300781 174.390625 139.964844 C 167.207031 138.710938 163.589844 141.476562 160.21875 143.691406 C 158.742188 144.761719 155.777344 145.519531 152.65625 146.949219 C 152.363281 147.023438 146.585938 147.894531 145.933594 147.78125 C 143.101562 146.96875 142.761719 147.039062 141.394531 146.617188 C 155.933594 146.269531 154.667969 144.277344 160.347656 141.523438 C 162.324219 140.445312 165.535156 138.585938 166.234375 138.472656 C 171.867188 137.441406 167.902344 136.589844 175.355469 137.546875 C 176.109375 137.648438 176.886719 138 177.632812 137.648438 C 178.746094 137.265625 179.890625 136.929688 180.933594 136.363281 C 183.035156 135.742188 190.296875 136.726562 192.476562 137.3125 C 195.5625 138.117188 194.960938 131.632812 209.335938 137.851562 Z M 209.335938 137.851562 "/><path style=" stroke:none;fill-rule:nonzero;fill:#000000;fill-opacity:1;" d="M 173.207031 144.566406 C 171.253906 153.898438 172.132812 153.699219 172.789062 156.601562 C 170.296875 154.515625 170.734375 154.511719 170.390625 151.171875 C 170.375 151.054688 170.105469 147.417969 173.207031 144.566406 Z M 173.207031 144.566406 "/><path style=" stroke:none;fill-rule:nonzero;fill:#000000;fill-opacity:1;" d="M 237.917969 162.027344 C 235.773438 163.394531 232.988281 164.8125 230.007812 167.226562 C 231.273438 168.015625 232.667969 168.566406 233.960938 169.3125 C 226.859375 168.355469 229.546875 168.226562 224.214844 169.265625 C 221.835938 169.792969 223.53125 168.558594 217.164062 173.589844 C 217.117188 173.664062 214.082031 178.277344 213.972656 178.398438 C 214.328125 175.886719 214.054688 176.515625 214.921875 174.683594 C 216.285156 171.988281 215.796875 172.960938 217.554688 171.367188 C 220.835938 168.636719 220.800781 168.792969 220.992188 168.4375 C 232.390625 166.546875 227.652344 164.320312 237.917969 162.027344 Z M 237.917969 162.027344 "/><path style=" stroke:none;fill-rule:nonzero;fill:#000000;fill-opacity:1;" d="M 240.164062 188.929688 C 240.648438 190.027344 241.101562 193.894531 241.75 194.296875 C 241.75 194.296875 244.773438 196.390625 244.773438 196.390625 C 245.03125 196.660156 247.230469 196.824219 249.332031 197.253906 C 249.949219 197.414062 250.914062 196.871094 251.207031 196.769531 C 253.570312 195.8125 252.152344 196.734375 253.5 195.164062 C 254.003906 194.511719 254.574219 193.910156 254.96875 193.183594 C 255.019531 193.046875 255.152344 192.984375 255.269531 192.910156 C 255.25 192.949219 254.480469 194.847656 253.652344 196.566406 C 252.785156 197.40625 251.195312 198.550781 250.9375 199.015625 C 250.9375 199.015625 246.902344 198.605469 246.902344 198.605469 C 246.828125 198.550781 242.53125 196.664062 242.0625 196.597656 C 240.824219 193.636719 239.828125 195.570312 240.164062 188.929688 Z M 240.164062 188.929688 "/><path style=" stroke:none;fill-rule:nonzero;fill:#000000;fill-opacity:1;" d="M 224.804688 196.960938 C 225.707031 197.332031 229.980469 198.472656 231.144531 198.761719 C 231.21875 198.796875 241.285156 203.6875 242.214844 204.226562 C 242.140625 204.207031 228.246094 199.074219 227.007812 198.941406 C 227.007812 198.941406 221.128906 198.6875 218.359375 198.625 C 218.167969 198.617188 212.15625 199.332031 211.867188 199.351562 C 212.359375 198.738281 213.097656 198.367188 213.519531 197.6875 C 215.09375 197.695312 217.488281 196.539062 224.804688 196.960938 Z M 224.804688 196.960938 "/><path style=" stroke:none;fill-rule:nonzero;fill:#000000;fill-opacity:1;" d="M 186.539062 216.015625 C 186.539062 216.015625 192.238281 220.300781 192.238281 220.300781 C 200.160156 223.574219 198.097656 222.484375 201.199219 222.917969 C 203.246094 223.253906 203.96875 223.277344 207.722656 222.050781 C 208.421875 222.023438 207.089844 220.042969 206.753906 218.242188 C 207.507812 218.707031 207.398438 218.808594 211.214844 221.875 C 212.128906 222.242188 215.242188 222.480469 217.375 223.003906 C 218.894531 223.285156 219.394531 222.855469 225.011719 222.621094 C 240.4375 218.285156 234.070312 219.582031 240.929688 217.199219 C 240.855469 217.273438 235.46875 221.652344 234.882812 221.964844 C 234.808594 222.007812 231.558594 223.898438 231.375 224.089844 C 230.964844 225.0625 229.839844 227.171875 229.839844 227.171875 C 229.753906 226.222656 229.421875 224.125 229.410156 224.050781 C 229.335938 224.054688 220.34375 225.761719 214.929688 224.519531 C 214.855469 224.503906 209.417969 223.273438 208.785156 223.230469 C 207.445312 223.839844 205.628906 224.878906 205.332031 224.851562 C 199.210938 224.867188 199.476562 224.871094 199.160156 224.753906 C 198.460938 224.53125 193.878906 223.492188 191.039062 222.019531 C 183.960938 225.890625 179.351562 225.269531 175.398438 225.265625 C 174.101562 224.992188 172.863281 224.472656 171.613281 224.039062 C 170.617188 223.355469 169.621094 222.664062 168.679688 221.90625 C 175.324219 223.761719 175.832031 224.917969 184.597656 222.980469 C 185.128906 222.835938 185.699219 222.773438 186.175781 222.472656 C 187.316406 221.710938 188.597656 221.179688 189.6875 220.335938 C 188.679688 218.867188 187.546875 217.484375 186.539062 216.015625 Z M 186.539062 216.015625 "/><path style=" stroke:none;fill-rule:nonzero;fill:#000000;fill-opacity:1;" d="M 170.945312 227.046875 C 167.03125 229.808594 166.535156 229.605469 166.660156 229.933594 C 167.207031 230.328125 169.648438 231.570312 170.035156 231.789062 C 172.214844 232.285156 173.277344 233.34375 178.738281 233.402344 C 190.292969 233.367188 192.988281 231.355469 200.886719 229.070312 C 201.351562 228.976562 201.746094 228.644531 202.238281 228.707031 C 199.121094 230.210938 191.375 233.558594 185.492188 235.058594 C 179.773438 235.53125 171.511719 235.996094 166.429688 233.3125 C 164.488281 232.335938 163.191406 230.59375 162.585938 230.707031 C 159.679688 231.242188 156.3125 231.378906 150.292969 235.734375 C 148.605469 236.773438 149.703125 236.140625 146.632812 236.730469 C 145.742188 236.554688 144.898438 236.199219 144.066406 235.847656 C 149.566406 235.503906 146.5 236.382812 149.257812 234.90625 C 152.066406 233.28125 150.917969 233.40625 154.917969 230.753906 C 154.992188 230.710938 157.714844 229.058594 158.046875 228.984375 C 165.734375 227.28125 162.511719 227.558594 167.550781 227.210938 C 167.71875 227.175781 169.890625 226.992188 170.945312 227.046875 Z M 170.945312 227.046875 "/></g></svg>